<svg width="16" height="16" viewBox="0 0 16 16" fill="none" xmlns="http://www.w3.org/2000/svg">
<path d="M7.1253 3.62748V4.96172L7.93745 5.77375C7.7515 4.82228 8.03316 3.85167 8.71678 3.16815C9.27189 2.61312 10.0075 2.31511 10.7677 2.31511H10.8005L9.23087 3.87902L9.64378 6.35612L12.1212 6.76897L13.6881 5.20232C13.6963 5.97608 13.3983 6.71975 12.835 7.28298C12.5806 7.53725 12.2826 7.73137 11.9654 7.87355C12.0146 7.91729 12.072 7.95284 12.1185 7.99932L12.958 8.83869C13.2451 8.66644 13.5186 8.45865 13.762 8.21258C14.8038 7.17088 15.2304 5.63431 14.8749 4.20437C14.7929 3.87081 14.5358 3.60834 14.2077 3.51538C13.8741 3.42242 13.5186 3.51811 13.2779 3.76145L11.6728 5.36364L10.7868 5.21599L10.6391 4.33014L12.2416 2.72796C12.4849 2.48462 12.5779 2.12919 12.4849 1.79836C12.3947 1.46753 12.1294 1.21053 11.7958 1.1285C10.3411 0.767601 8.8453 1.18319 7.78705 2.23855C7.50813 2.51743 7.28117 2.83185 7.09522 3.16541L7.1253 3.18729V3.62748ZM3.89858 13.4129C3.54856 13.7628 2.9333 13.7628 2.58328 13.4129C2.40827 13.2379 2.30983 13.0027 2.30983 12.7567C2.30983 12.5079 2.40554 12.2755 2.58328 12.1005L6.25846 8.42584L5.33146 7.49897L1.65628 11.1709C1.23243 11.5947 1 12.1579 1 12.7567C1 13.3554 1.23243 13.9187 1.65628 14.3424C2.08013 14.7662 2.64344 14.9986 3.2423 14.9986C3.84115 14.9986 4.40446 14.7662 4.82831 14.3424L7.58743 11.5837C7.32218 11.1517 7.17179 10.6596 7.15811 10.1593L3.89858 13.4129ZM14.7026 11.8189L11.5005 8.61722C10.8688 7.98565 9.92544 7.86261 9.16524 8.23718L6.25026 5.32262V3.62474L2.75009 1L1 2.74983L3.62513 6.24949H5.32326L8.23824 9.16405C7.86635 9.92413 7.98667 10.8674 8.61834 11.499L11.8204 14.7006C12.2197 15.0998 12.865 15.0998 13.2615 14.7006L14.7026 13.2597C15.0991 12.8606 15.0991 12.2153 14.7026 11.8189V11.8189Z" fill="#FFCC00"/>
</svg>
