<svg width="32" height="32" viewBox="0 0 32 32" fill="none" xmlns="http://www.w3.org/2000/svg">
<path d="M14.2506 7.25496V9.92344L15.8749 11.5475C15.503 9.64457 16.0663 7.70335 17.4336 6.3363C18.5438 5.22625 20.0149 4.63021 21.5353 4.63021H21.601L18.4617 7.75803L19.2876 12.7122L24.2425 13.5379L27.3762 10.4046C27.3926 11.9522 26.7965 13.4395 25.6699 14.566C25.1613 15.0745 24.5652 15.4627 23.9308 15.7471C24.0292 15.8346 24.144 15.9057 24.237 15.9986L25.916 17.6774C26.4903 17.3329 27.0372 16.9173 27.5239 16.4252C29.6076 14.3418 30.4608 11.2686 29.7498 8.40875C29.5857 7.74163 29.0716 7.21668 28.4154 7.03076C27.7481 6.84484 27.0372 7.03623 26.5559 7.5229L23.3456 10.7273L21.5736 10.432L21.2783 8.66029L24.4831 5.45591C24.9699 4.96924 25.1558 4.25837 24.9699 3.59672C24.7894 2.93506 24.2589 2.42105 23.5917 2.25701C20.6822 1.5352 17.6906 2.36637 15.5741 4.4771C15.0163 5.03486 14.5623 5.6637 14.1904 6.33083L14.2506 6.37457V7.25496ZM7.79716 26.8257C7.09712 27.5256 5.86659 27.5256 5.16656 26.8257C4.81654 26.4757 4.61966 26.0055 4.61966 25.5133C4.61966 25.0157 4.81107 24.5509 5.16656 24.201L12.5169 16.8517L10.6629 14.9979L3.31256 22.3418C2.46487 23.1893 2 24.3158 2 25.5133C2 26.7109 2.46487 27.8373 3.31256 28.6849C4.16026 29.5325 5.28688 29.9973 6.48459 29.9973C7.68231 29.9973 8.80893 29.5325 9.65662 28.6849L15.1749 23.1675C14.6444 22.3035 14.3436 21.3192 14.3162 20.3185L7.79716 26.8257ZM29.4052 23.6377L23.001 17.2344C21.7377 15.9713 19.8509 15.7252 18.3305 16.4744L12.5005 10.6452V7.24949L5.50017 2L2 5.49966L7.25026 12.499H10.6465L16.4765 18.3281C15.7327 19.8483 15.9733 21.7348 17.2367 22.9979L23.6409 29.4012C24.4394 30.1996 25.7301 30.1996 26.5231 29.4012L29.4052 26.5195C30.1983 25.7211 30.1983 24.4306 29.4052 23.6377V23.6377Z" fill="#FFCC00"/>
</svg>
